<?xml version="1.0" encoding="utf-8"?>
<!-- Generator: Adobe Illustrator 25.4.1, SVG Export Plug-In . SVG Version: 6.00 Build 0)  -->
<svg version="1.1" id="Calque_1" xmlns="http://www.w3.org/2000/svg" xmlns:xlink="http://www.w3.org/1999/xlink" x="0px" y="0px"
	 viewBox="0 0 49.8 49.7" style="enable-background:new 0 0 49.8 49.7;" xml:space="preserve">
<path d="M24.9,49.7C11.2,49.7,0,38.6,0,24.8C0,11.1,11.2-0.1,24.9-0.1s24.9,11.2,24.9,24.9C49.9,38.6,38.7,49.7,24.9,49.7z
	 M24.9,1.8c-12.7,0-23,10.3-23,23s10.3,23,23,23s23-10.3,23-23C48,12.1,37.6,1.8,24.9,1.8z"/>
<g>
	<path d="M37.2,21.6c-0.3,0-0.6,0-1,0.2v4.4c0.2,0,0.3,0,0.5,0c1.8,0,2.9-1,2.9-2.4C39.6,22.5,38.7,21.6,37.2,21.6z"/>
	<path d="M25.3,21.6c-0.3,0-0.6,0-1,0.2v4.4c0.2,0,0.3,0,0.5,0c1.8,0,2.9-1,2.9-2.4C27.7,22.5,26.7,21.6,25.3,21.6z"/>
	<polygon points="21.8,10.1 21.2,11.5 22.3,11.5 	"/>
	<path d="M24.9,3.2c-12,0-21.6,9.7-21.6,21.6c0,12,9.7,21.6,21.6,21.6c12,0,21.6-9.7,21.6-21.6C46.6,12.9,36.9,3.2,24.9,3.2z
		 M31.4,6.7L32,7.3l-1.2,1l-0.5-0.4L31.4,6.7z M32.9,8.5l0.3,0.8h-1.8v0.8h1.3v0.8h-1.3v1.2h1.9L33,12.9h-3.5V9.1l-0.2-0.6H32.9z
		 M28.6,8.5l0.3,0.8h-1.8v0.8h1.3v0.8h-1.3v2h-1.8V9.1l-0.2-0.6H28.6z M21.1,8.5h2l1.7,4.4h-2l-0.3-0.7h-1.7l-0.3,0.7h-0.8l1.5-3.8
		L21.1,8.5z M16.1,9.1c0.5-0.4,1.1-0.7,1.7-0.7c0.6,0,1.1,0.2,1.7,0.6L19,9.7c-0.4-0.3-0.8-0.4-1.3-0.4h-0.1v3h0.1
		c0.5,0,0.9-0.1,1.3-0.5l0.4,0.7c-0.5,0.4-1.1,0.6-1.8,0.6c-0.6,0-1.2-0.2-1.7-0.7c-0.4-0.4-0.7-1-0.7-1.7
		C15.3,10.1,15.6,9.4,16.1,9.1z M12.3,28.3c-2,0-3.5-0.5-4.7-1.6L8.9,25c0.9,0.8,2,1.2,3.4,1.2l0,0v-3.5h-2.2v-2.1h2.2V18
		c-1.2,0-2.2,0.3-3.2,0.9L8,17.2c1.1-0.9,2.6-1.3,4.3-1.3c2.9,0,5,1.7,5,3.9c0,0.7-0.2,1.2-0.6,1.8c0.7,0.6,1.1,1.5,1.1,2.5
		C17.8,26.5,15.6,28.3,12.3,28.3z M28.9,43.6l-0.1,0.3h-7.5l-0.1-0.3c-1.2-2.7-1.9-6.7-2-10.9h1c0.1,3.9,0.8,7.7,1.8,10.2h6.2
		c1.1-2.6,1.7-6.3,1.8-10.2h1C30.8,36.9,30.1,40.9,28.9,43.6z M26.6,34.8L25,33.6l-1.7,1.2l0.6-1.9l-1.6-1.2h2l0.6-1.9l0.6,1.9h2
		l-1.6,1.2L26.6,34.8z M29,37.5c0,0.3-0.1,0.6-0.1,1h-7.6c-0.1-0.3-0.1-0.6-0.1-1H29z M28.8,38.9c-0.2,1.3-0.6,2.4-1,3.5h-5.4
		c-0.4-1-0.8-2.1-1-3.5H28.8z M28.4,27.1c-0.9,0.8-2.1,1.2-3.5,1.2c-3.6,0-6-2.4-6-6.3c0-3.7,2.5-6.3,6.2-6.3c1.2,0,2.3,0.2,3.4,0.7
		l-0.8,2c-0.8-0.4-1.7-0.6-2.5-0.6c-0.3,0-0.6,0-0.8,0.1v1.7c0.4-0.1,0.7-0.1,1-0.1c2.7,0,4.6,1.8,4.6,4.3
		C29.9,25.1,29.4,26.2,28.4,27.1z M40.3,27.1c-0.9,0.8-2.1,1.2-3.5,1.2c-3.6,0-6-2.4-6-6.3c0-3.7,2.5-6.3,6.2-6.3
		c1.2,0,2.3,0.2,3.4,0.7l-0.8,2c-0.8-0.4-1.7-0.6-2.5-0.6c-0.3,0-0.6,0-0.8,0.1v1.7c0.4-0.1,0.7-0.1,1-0.1c2.7,0,4.6,1.8,4.6,4.3
		C41.8,25.1,41.3,26.2,40.3,27.1z"/>
</g>
</svg>
