<?xml version="1.0" encoding="utf-8"?>
<!-- Generator: Adobe Illustrator 26.2.1, SVG Export Plug-In . SVG Version: 6.00 Build 0)  -->
<svg version="1.1" id="Calque_1" xmlns="http://www.w3.org/2000/svg" xmlns:xlink="http://www.w3.org/1999/xlink" x="0px" y="0px"
	 viewBox="0 0 160 50" style="enable-background:new 0 0 160 50;" xml:space="preserve">
<style type="text/css">
	.st0{fill:#FFFFFF;}
</style>
<g>
	<path class="st0" d="M41.3,20.1c-0.8-0.3-1.8-0.5-2.8-0.5h-0.3v11.9h0.2c2,0,3.7-0.7,5.2-1.8l1.8,2.6c-1.1,0.8-2.1,1.3-3.3,1.8
		c-1.1,0.3-2.3,0.5-3.4,0.5c-1.6,0-3.3-0.3-4.6-1c-0.8-0.3-1.5-0.8-2.1-1.5c-0.7-0.7-1.1-1.1-1.6-2c-0.5-0.7-0.8-1.5-1-2.3
		c-0.2-0.8-0.3-1.6-0.3-2.4c0-1.3,0.3-2.4,0.8-3.6s1.1-2.1,2.1-2.8c1-0.8,2.1-1.5,3.3-2c1.1-0.5,2.3-0.7,3.6-0.7
		c2.4,0,4.7,0.7,6.7,2.1l-2,2.8C42.8,20.7,42.1,20.4,41.3,20.1z"/>
	<path class="st0" d="M58.4,34.2l-1-2.6h-6.5l-1,2.6h-3.4l5.9-15L51.7,17h7.8l6.8,17.2H58.4z M54.1,23.3L52,28.7h4.2L54.1,23.3z"/>
	<path class="st0" d="M75.6,20.1v3.4h5.2v3.1h-5.2v7.6h-7.5V19.4l-0.8-2.3h14.1l1.1,3.1h-7V20.1z"/>
	<path class="st0" d="M98.2,34.2H84.7V19.4l-0.8-2.3H98l1.1,3.1h-7v3.4h5.2v3.1h-5.2v4.6h7.3L98.2,34.2z M90.1,15.9l-1.5-1.1
		l3.4-3.6l2,1.6L90.1,15.9z"/>
	<path class="st0" d="M119.3,24.8c0.5,0.5,1,1,1.1,1.6c0.3,0.7,0.3,1.3,0.3,2.1c0,1-0.2,1.8-0.7,2.4c-0.3,0.8-1,1.5-1.6,2
		c-0.7,0.5-1.5,1-2.4,1.3s-2.1,0.5-3.3,0.5c-2.9,0-5.2-0.8-6.8-2.3l1.8-2.4c1.3,1.1,2.9,1.6,4.9,1.6h0.2v-5h-3.3v-3.1h3.3v-3.7
		c-0.8,0-1.6,0.2-2.4,0.3s-1.5,0.5-2.1,1l-1.6-2.6c0.8-0.7,1.8-1.1,2.8-1.5s2.1-0.5,3.4-0.5c1,0,2,0.2,2.9,0.5
		c0.8,0.3,1.6,0.7,2.3,1.1s1.1,1.1,1.5,1.8s0.5,1.5,0.5,2.1C120.1,23.2,119.8,24,119.3,24.8z"/>
	<path class="st0" d="M131.8,22c1,0,1.8,0.2,2.6,0.5c0.8,0.3,1.5,0.7,2.1,1.3c0.7,0.5,1,1.1,1.3,2c0.3,0.8,0.5,1.6,0.5,2.4
		c0,2-0.7,3.6-2.1,4.9c-0.7,0.5-1.5,1-2.3,1.3c-0.8,0.3-1.8,0.5-2.8,0.5c-1.3,0-2.6-0.2-3.6-0.7c-1.1-0.5-2-1-2.8-1.8
		s-1.3-1.8-1.8-2.9c-0.5-1.1-0.7-2.4-0.7-3.7c0-1.3,0.2-2.6,0.7-3.7c0.5-1.1,1-2.1,1.8-2.9c0.8-0.8,1.8-1.5,2.8-1.8
		c1.1-0.5,2.3-0.7,3.6-0.7c1.6,0,3.3,0.3,5,1l-1.1,2.8c-1.1-0.7-2.4-0.8-3.6-0.8c-0.5,0-0.8,0-1.1,0.2v2.4
		C130.8,22,131.3,22,131.8,22z M130.2,31.6c0.2,0,0.5,0,0.7,0c0.7,0,1.3-0.2,1.8-0.3c0.5-0.2,1-0.5,1.3-0.7c0.3-0.3,0.7-0.7,0.8-1.1
		c0.2-0.5,0.3-1,0.3-1.5c0-1-0.3-1.8-1-2.3c-0.7-0.7-1.5-0.8-2.6-0.8c-0.5,0-1,0-1.5,0.2v6.5H130.2z"/>
	<path class="st0" d="M149,22c1,0,1.8,0.2,2.6,0.5c0.8,0.3,1.5,0.7,2.1,1.3c0.7,0.5,1,1.1,1.3,2c0.3,0.8,0.5,1.6,0.5,2.4
		c0,2-0.7,3.6-2.1,4.9c-0.7,0.5-1.5,1-2.3,1.3c-0.8,0.3-1.8,0.5-2.8,0.5c-1.3,0-2.6-0.2-3.6-0.7c-1.1-0.5-2-1-2.8-1.8
		c-0.8-0.8-1.3-1.8-1.8-2.9c-0.5-1.1-0.7-2.4-0.7-3.7c0-1.3,0.2-2.6,0.7-3.7s1-2.1,1.8-2.9c0.8-0.8,1.8-1.5,2.8-1.8
		c1.1-0.5,2.3-0.7,3.6-0.7c1.6,0,3.3,0.3,5,1l-1.1,2.8c-1.1-0.7-2.4-0.8-3.6-0.8c-0.5,0-0.8,0-1.1,0.2v2.4C148.1,22,148.6,22,149,22
		z M147.6,31.6c0.2,0,0.5,0,0.7,0c0.7,0,1.3-0.2,1.8-0.3c0.5-0.2,1-0.5,1.3-0.7c0.3-0.3,0.7-0.7,0.8-1.1c0.2-0.5,0.3-1,0.3-1.5
		c0-1-0.3-1.8-1-2.3c-0.7-0.7-1.5-0.8-2.6-0.8c-0.5,0-1,0-1.5,0.2v6.5H147.6z"/>
</g>
<g>
	<polygon class="st0" points="17.5,18.2 14.2,16 11.2,18.2 12.2,14.6 9.2,12.3 13,12.3 14.2,8.5 15.5,12.3 19.3,12.3 16.3,14.6 	"/>
	<g>
		<g>
			<path class="st0" d="M21.5,35.7H7.3l-0.4-0.6C4.7,30,3.3,22.3,3.1,14.2h1.8c0.2,7.5,1.4,14.6,3.5,19.7h11.8
				c2-4.9,3.5-12,3.5-19.7h1.8c-0.2,8.1-1.6,15.8-3.9,20.9V35.7z"/>
		</g>
		<g>
			<path class="st0" d="M22,23.3H6.7c0,0.6,0.2,1.2,0.2,1.8h14.6C21.8,24.5,22,23.9,22,23.3z"/>
			<path class="st0" d="M9.2,32.7h10.4c0.8-2,1.4-4.3,2-6.7H7.1C7.7,28.6,8.3,30.8,9.2,32.7z"/>
		</g>
	</g>
</g>
</svg>
