<?xml version="1.0" encoding="utf-8"?>
<!-- Generator: Adobe Illustrator 25.3.1, SVG Export Plug-In . SVG Version: 6.00 Build 0)  -->
<svg version="1.1" id="Calque_1" xmlns="http://www.w3.org/2000/svg" xmlns:xlink="http://www.w3.org/1999/xlink" x="0px" y="0px"
	 viewBox="0 0 256 250" style="enable-background:new 0 0 256 250;" xml:space="preserve">
<path d="M201,0H55.2C26.4,0,3.1,23.3,3.1,52.1v145.8c0,28.7,23.3,52.1,52.1,52.1H201c28.7,0,52.1-23.4,52.1-52.1V52.1
	C253,23.3,229.8,0,201,0z M172.8,125h-28.1v88.4h-41.8V125H82.3V95.2h20.3c0,0,0-19.9,0-24.3c0-4.5-1-34.3,42.9-34.3
	c5.9,0,19.3,0,31.1,0c0.1,12.9,0.1,27,0.1,31.1c-8.8,0-18.4,0-22.8,0c-4.5,0-9,4.1-9,7.1c0,3.1,0,20.3,0,20.3s28.2,0,31.9,0
	C175.4,110.7,172.8,125,172.8,125z"/>
</svg>
