<?xml version="1.0" encoding="utf-8"?>
<!-- Generator: Adobe Illustrator 25.4.1, SVG Export Plug-In . SVG Version: 6.00 Build 0)  -->
<svg version="1.1" id="Calque_1" xmlns="http://www.w3.org/2000/svg" xmlns:xlink="http://www.w3.org/1999/xlink" x="0px" y="0px"
	 viewBox="0 0 700 700" style="enable-background:new 0 0 700 700;" xml:space="preserve">
<style type="text/css">
	.st0{fill:#1D1D1B;}
</style>
<g>
	<polygon class="st0" points="429.9,255.8 340,199 255.7,255.8 283.8,162.8 199.5,106 306.3,106 340,7.9 373.7,106 480.5,106 
		396.2,162.8 	"/>
	<g>
		<g>
			<path class="st0" d="M145.6,700C83.8,570.9,36.6,359.1,31,152.5h50.6c5.6,191.1,39.3,371.9,95.5,501h325.9
				c56.2-124,95.5-304.7,95.5-501H649c-5.6,206.6-53.1,418.4-114.9,547.5H145.6z"/>
		</g>
		<g>
			<path class="st0" d="M553.5,384.9H132.1c0,15.5,5.6,31,5.6,46.5h404.5C547.9,415.9,553.5,400.4,553.5,384.9z"/>
			<path class="st0" d="M199.5,622.5h286.5c22.5-51.6,39.3-108.5,56.2-170.4H143.4C160.2,519.2,177.1,576,199.5,622.5z"/>
		</g>
	</g>
</g>
</svg>
